# xmcd CD database file
#
# Track frame offsets:
#	182
#	22587
#	34270
#	50047
#	65510
#	84987
#	96865
#	128350
#	149035
#	168302
#	191625
#	205130
#
# Disc length: 2896 seconds
#
# Revision: 1
# Processed by: cddbd v1.4PL0 Copyright (c) Steve Scherf et al.
# Submitted via: Feurio! 1.64 - http://www.feurio.com
#
DISCID=a00b4e0c
DTITLE=Various Artist - The Story of Blues - Shades Of Blue
DYEAR=1997
DGENRE=
TTITLE0=Cassandra Wilson - Com On In My Kitchen
TTITLE1=Nellie Lutcher - Kinda Blue And Low
TTITLE2=Nina Simone - Fine And Mellow
TTITLE3=Dinah Washington - Is You Is Or Is You Ain't Me Baby
TTITLE4=Duke Ellington and Charles Mingus - REM Blues
TTITLE5=King Curtis - Slow Drag
TTITLE6=Kenny Burrell - Mule
TTITLE7=Earl Klugh - Goodtime Charlie's Got The Blues
TTITLE8=Cassandra Wilson - Death Letter
TTITLE9=Stanley Jordan - Still Got The Blues
TTITLE10=Nat King Cole - Gee Baby, Ain't I Good To You
TTITLE11=Floyd Dixon - Wine, Wine, Wine
EXTD=
EXTT0=
EXTT1=
EXTT2=
EXTT3=
EXTT4=
EXTT5=
EXTT6=
EXTT7=
EXTT8=
EXTT9=
EXTT10=
EXTT11=
PLAYORDER=
